<svg width="18" height="19" viewBox="0 0 18 19" fill="none" xmlns="http://www.w3.org/2000/svg">
<path d="M0.890323 12.2736C0.563441 12.2736 0.331183 12.1016 0.193548 11.7575C0.0645161 11.4134 0 10.8629 0 10.1059C0 8.98761 0.15914 7.92524 0.477419 6.91879C0.554839 6.66933 0.67957 6.48868 0.851613 6.37685C1.03226 6.25642 1.28172 6.19621 1.6 6.19621C1.77204 6.19621 1.89247 6.21771 1.96129 6.26072C2.03011 6.30373 2.06452 6.38545 2.06452 6.50589C2.06452 6.64352 2 6.9532 1.87097 7.43492C1.78495 7.779 1.71613 8.08008 1.66452 8.33814C1.6129 8.59621 1.56989 8.91449 1.53548 9.29298C1.81936 8.5532 2.13763 7.95105 2.49032 7.48653C2.84301 7.02201 3.1871 6.69083 3.52258 6.49298C3.86667 6.29513 4.18065 6.19621 4.46452 6.19621C5.02366 6.19621 5.30323 6.47578 5.30323 7.03492C5.30323 7.14675 5.26452 7.41771 5.1871 7.84782C5.11828 8.19191 5.08387 8.40696 5.08387 8.49298C5.08387 8.79406 5.1914 8.94459 5.40645 8.94459C5.64731 8.94459 5.95699 8.75535 6.33548 8.37685C6.44731 8.26502 6.56344 8.20911 6.68387 8.20911C6.7957 8.20911 6.88172 8.26072 6.94194 8.36395C7.01075 8.45857 7.04516 8.58761 7.04516 8.75105C7.04516 9.06933 6.95914 9.31879 6.7871 9.49943C6.54624 9.7489 6.26237 9.96395 5.93548 10.1446C5.6172 10.3166 5.27742 10.4027 4.91613 10.4027C4.46022 10.4027 4.11183 10.2865 3.87097 10.0543C3.63871 9.82201 3.52258 9.50804 3.52258 9.11234C3.52258 8.9833 3.53548 8.85427 3.56129 8.72524C3.57849 8.5532 3.5871 8.43707 3.5871 8.37685C3.5871 8.23922 3.53979 8.1704 3.44516 8.1704C3.31613 8.1704 3.14409 8.31664 2.92903 8.60911C2.72258 8.89298 2.51613 9.27148 2.30968 9.74459C2.10323 10.2177 1.93548 10.7166 1.80645 11.2414C1.71183 11.6457 1.6 11.9209 1.47097 12.0672C1.35054 12.2048 1.15699 12.2736 0.890323 12.2736Z" fill="#252525"/>
<path d="M12.4526 9.3575C12.5645 9.3575 12.6505 9.41341 12.7107 9.52524C12.7795 9.62847 12.8139 9.7618 12.8139 9.92524C12.8139 10.1231 12.7838 10.2779 12.7236 10.3898C12.6634 10.5016 12.5688 10.6005 12.4397 10.6865C11.6999 11.1855 11.158 11.5553 10.8139 11.7962L9.98811 12.351C9.66122 14.1317 9.23112 15.5295 8.69778 16.5446C8.17305 17.5683 7.50208 18.0801 6.68488 18.0801C6.24617 18.0801 5.88918 17.9424 5.61391 17.6672C5.33864 17.4005 5.20101 17.0478 5.20101 16.6091C5.20101 15.9984 5.44187 15.3403 5.92359 14.6349C6.40531 13.9381 7.30854 13.0779 8.63327 12.0543L8.71069 11.551C8.56445 11.7833 8.3709 11.9639 8.13004 12.093C7.89778 12.2134 7.66553 12.2736 7.43327 12.2736C6.89993 12.2736 6.47413 12.0801 6.15585 11.693C5.83757 11.3059 5.67843 10.7984 5.67843 10.1704C5.67843 9.48223 5.83757 8.83277 6.15585 8.22201C6.47413 7.60266 6.89563 7.10804 7.42036 6.73814C7.9537 6.35965 8.51714 6.1704 9.11069 6.1704C9.29993 6.1704 9.42466 6.20911 9.48488 6.28653C9.5537 6.35535 9.60961 6.48438 9.65262 6.67363C9.81606 6.63922 10.0053 6.62201 10.2204 6.62201C10.4354 6.62201 10.586 6.65642 10.672 6.72524C10.7666 6.78545 10.8139 6.91019 10.8139 7.09943C10.8139 7.20266 10.8096 7.28438 10.801 7.34459C10.7666 7.61126 10.6591 8.28653 10.4784 9.3704C10.444 9.57685 10.4053 9.80481 10.3623 10.0543C10.3279 10.2951 10.2892 10.5532 10.2462 10.8285C10.9085 10.3123 11.5451 9.85642 12.1558 9.46072C12.2677 9.39191 12.3666 9.3575 12.4526 9.3575ZM7.89778 10.9704C8.09563 10.9704 8.28488 10.85 8.46552 10.6091C8.64617 10.3683 8.7752 10.0242 8.85262 9.57685L9.26553 7.3704C8.91284 7.379 8.58596 7.51664 8.28488 7.7833C7.9838 8.04137 7.74294 8.38545 7.5623 8.81556C7.38165 9.24567 7.29133 9.70158 7.29133 10.1833C7.29133 10.45 7.34294 10.6478 7.44617 10.7769C7.558 10.9059 7.70854 10.9704 7.89778 10.9704ZM6.82681 16.8285C7.04187 16.8285 7.28273 16.5704 7.5494 16.0543C7.82466 15.5381 8.08703 14.7166 8.33649 13.5898C7.67413 14.1575 7.19671 14.6693 6.90423 15.1252C6.61176 15.5812 6.46552 15.9812 6.46552 16.3252C6.46552 16.4715 6.49133 16.5919 6.54294 16.6865C6.60316 16.7812 6.69778 16.8285 6.82681 16.8285Z" fill="#252525"/>
<path d="M14.5754 12.2736C13.7152 12.2736 13.0872 11.9424 12.6915 11.2801C12.3044 10.6177 12.1109 9.65857 12.1109 8.40266C12.1109 7.29298 12.2485 6.08868 12.5238 4.78976C12.7991 3.48223 13.1991 2.37255 13.7238 1.46072C14.2571 0.540293 14.8894 0.0800781 15.6206 0.0800781C16.0163 0.0800781 16.3345 0.252121 16.5754 0.596207C16.8163 0.931691 16.9367 1.3704 16.9367 1.91234C16.9367 2.61771 16.8034 3.31879 16.5367 4.01556C16.27 4.71234 15.827 5.44352 15.2077 6.20911C15.6292 6.24352 15.9948 6.38545 16.3044 6.63492C16.6227 6.88438 16.8636 7.20696 17.027 7.60266C17.1991 7.99836 17.2851 8.42847 17.2851 8.89298C17.2851 9.53814 17.156 10.1188 16.898 10.6349C16.6485 11.151 16.3173 11.5553 15.9044 11.8478C15.4915 12.1317 15.0485 12.2736 14.5754 12.2736ZM13.8141 7.08653C14.3819 6.04567 14.8335 5.12954 15.169 4.33814C15.513 3.53814 15.6851 2.82847 15.6851 2.20911C15.6851 1.93384 15.6507 1.72309 15.5819 1.57685C15.5216 1.43062 15.4356 1.3575 15.3238 1.3575C15.1517 1.3575 14.9625 1.61556 14.756 2.13169C14.5582 2.63922 14.3733 3.33169 14.2012 4.20911C14.0292 5.08653 13.9001 6.04567 13.8141 7.08653ZM14.627 10.8801C14.9195 10.8801 15.1647 10.7209 15.3625 10.4027C15.569 10.0844 15.6722 9.61986 15.6722 9.00911C15.6722 8.53599 15.5862 8.179 15.4141 7.93814C15.2421 7.69728 15.0356 7.57685 14.7948 7.57685C14.4937 7.57685 14.2399 7.73169 14.0335 8.04137C13.827 8.35105 13.7238 8.80266 13.7238 9.39621C13.7238 9.91234 13.8098 10.2908 13.9819 10.5317C14.1539 10.7639 14.369 10.8801 14.627 10.8801Z" fill="#252525"/>
</svg>
